HIERARCHY
ROOT root
{
	OFFSET 0.000000 0.000000 0.000000
	CHANNELS 6 Xposition Yposition Zposition Zrotation Yrotation Xrotation
	JOINT lhip
	{
		OFFSET 0.058581 -0.082280 -0.017664
		CHANNELS 3 Zrotation Yrotation Xrotation
		JOINT lknee
		{
			OFFSET 0.043451 -0.386469 0.008037
			CHANNELS 3 Zrotation Yrotation Xrotation
			JOINT lankle
			{
				OFFSET -0.014790 -0.426874 -0.037428
				CHANNELS 3 Zrotation Yrotation Xrotation
				JOINT ltoe
				{
					OFFSET 0.041054 -0.060286 0.122042
					CHANNELS 3 Zrotation Yrotation Xrotation
					End Site
					{
						OFFSET 0.000000 0.000000 0.000000
					}
				}
			}
		}
	}
	JOINT rhip
	{
		OFFSET -0.060310 -0.090513 -0.013543
		CHANNELS 3 Zrotation Yrotation Xrotation
		JOINT rknee
		{
			OFFSET -0.043257 -0.383688 -0.004843
			CHANNELS 3 Zrotation Yrotation Xrotation
			JOINT rankle
			{
				OFFSET 0.019056 -0.420046 -0.034562
				CHANNELS 3 Zrotation Yrotation Xrotation
				JOINT rtoe
				{
					OFFSET -0.034840 -0.062106 0.130323
					CHANNELS 3 Zrotation Yrotation Xrotation
					End Site
					{
						OFFSET 0.000000 0.000000 0.000000
					}
				}
			}
		}
	}
	JOINT lowerback
	{
		OFFSET 0.004439 0.124404 -0.038385
		CHANNELS 3 Zrotation Yrotation Xrotation
		JOINT upperback
		{
			OFFSET 0.004488 0.137956 0.026820
			CHANNELS 3 Zrotation Yrotation Xrotation
			JOINT chest
			{
				OFFSET -0.002265 0.056032 0.002855
				CHANNELS 3 Zrotation Yrotation Xrotation
				JOINT lowerneck
				{
					OFFSET -0.013390 0.211636 -0.033468
					CHANNELS 3 Zrotation Yrotation Xrotation
					JOINT upperneck
					{
						OFFSET 0.010113 0.088937 0.050410
						CHANNELS 3 Zrotation Yrotation Xrotation
						End Site
						{
							OFFSET 0.000000 0.000000 0.000000
						}
					}
				}
				JOINT lclavicle
				{
					OFFSET 0.071702 0.114000 -0.018898
					CHANNELS 3 Zrotation Yrotation Xrotation
					JOINT lshoulder
					{
						OFFSET 0.122921 0.045205 -0.019046
						CHANNELS 3 Zrotation Yrotation Xrotation
						JOINT lelbow
						{
							OFFSET 0.255332 -0.015649 -0.022946
							CHANNELS 3 Zrotation Yrotation Xrotation
							JOINT lwrist
							{
								OFFSET 0.265709 0.012698 -0.007375
								CHANNELS 3 Zrotation Yrotation Xrotation
								End Site
								{
									OFFSET 0.000000 0.000000 0.000000
								}
							}
						}
					}
				}
				JOINT rclavicle
				{
					OFFSET -0.082954 0.112472 -0.023707
					CHANNELS 3 Zrotation Yrotation Xrotation
					JOINT rshoulder
					{
						OFFSET -0.113228 0.046853 -0.008472
						CHANNELS 3 Zrotation Yrotation Xrotation
						JOINT relbow
						{
							OFFSET -0.260127 -0.014369 -0.031269
							CHANNELS 3 Zrotation Yrotation Xrotation
							JOINT rwrist
							{
								OFFSET -0.269108 0.006794 -0.006027
								CHANNELS 3 Zrotation Yrotation Xrotation
								End Site
								{
									OFFSET 0.000000 0.000000 0.000000
								}
							}
						}
					}
				}
			}
		}
	}
}
MOTION
Frames: 13
Frame Time: 0.033333
-1.436362 1.268239 0.917664 70.304321 -1.475397 93.077240 13.992782 4.483613 -19.356864 -14.991819 -11.360222 37.591981 2.011541 1.296963 -26.852525 0.000000 -0.000000 0.000000 -14.293942 -3.003837 -25.420334 7.452181 6.689794 46.176141 5.824056 0.466833 -28.986417 0.000000 -0.000000 0.000000 -1.121238 0.543446 22.481618 2.542080 -3.007156 -3.724180 0.196250 -2.306186 -1.557463 3.291564 16.511612 -9.320843 -0.294984 3.458143 20.929534 -34.528006 -20.803742 4.415891 -39.426680 -20.514587 10.457034 1.537255 -12.966699 -3.462941 15.799301 -16.191412 0.448694 36.514046 17.146709 7.209509 36.118076 14.113856 12.201306 -8.781467 27.372016 -7.435953 -4.377932 12.231606 -6.334284 
-1.429571 1.265743 0.923927 70.370914 -1.524094 92.625383 13.975894 3.812059 -17.474898 -14.865464 -11.830393 35.866022 1.692565 1.816875 -26.175517 0.000000 -0.000000 0.000000 -14.085211 -3.315661 -23.981057 7.175522 6.929926 45.246304 5.972985 0.577687 -28.202259 0.000000 -0.000000 0.000000 -1.011618 0.531196 21.148520 2.377746 -2.685043 -3.349020 0.092053 -2.130932 -1.473091 3.293954 16.031948 -9.049636 -0.248816 4.014883 20.786474 -35.390093 -18.316271 4.200621 -39.746889 -19.069850 10.086351 1.989504 -13.611359 -4.193742 13.971189 -15.037901 0.127889 36.887518 15.709698 6.802311 35.661342 13.203998 12.101306 -7.326506 24.252782 -4.821244 1.375639 11.132443 -3.033571 
-1.423148 1.263131 0.931675 70.287977 -1.646396 92.377428 13.864150 3.361597 -15.804058 -14.849776 -12.315351 34.180915 1.543722 2.370873 -24.953406 0.000000 -0.000000 0.000000 -13.893743 -3.867121 -22.543228 7.266847 7.926717 43.889457 5.841862 0.177896 -27.007678 0.000000 -0.000000 0.000000 -1.102998 0.624443 19.626173 2.326189 -2.325393 -2.948133 0.061431 -1.996440 -1.422930 3.428851 15.508789 -8.810945 -0.123430 4.296157 21.026303 -35.973934 -15.425192 4.232454 -39.990948 -16.985227 10.084072 2.054226 -16.382339 -4.520436 14.284038 -14.555759 -2.211816 37.229546 14.273122 6.664531 35.499339 12.008676 12.359872 -6.696375 21.724124 -3.442540 3.959649 10.260278 -0.120698 
-1.414168 1.259720 0.941382 70.585995 -1.752396 91.750260 13.691798 2.763700 -13.198352 -14.516468 -13.319165 31.417135 1.078982 2.738179 -23.410824 0.000000 -0.000000 0.000000 -14.127596 -3.528168 -20.041873 7.032005 7.562999 41.656198 6.207524 -0.083403 -25.725678 0.000000 -0.000000 0.000000 -1.142002 0.551818 18.167120 2.201037 -1.769917 -2.877674 0.091701 -1.631635 -1.191154 3.738910 14.762887 -8.168258 0.110788 4.528849 21.135181 -36.480076 -11.877688 4.034761 -40.262392 -14.678926 10.306201 0.958218 -19.387276 -6.694893 14.425565 -13.776518 -7.365054 37.655954 11.879963 6.065422 35.493346 9.959005 12.642842 -5.766032 19.387631 -3.276558 4.099514 9.526807 2.348233 
-1.408784 1.257394 0.947527 70.664198 -1.863815 91.486739 13.553444 2.446862 -11.751871 -14.252721 -13.811955 29.764864 0.888899 2.880948 -22.484782 0.000000 -0.000000 0.000000 -14.312114 -3.752389 -18.678464 7.078643 7.777655 40.355005 6.499048 0.124120 -24.521011 0.000000 -0.000000 0.000000 -1.197044 0.640345 17.163570 2.135475 -1.557135 -2.904348 -0.025453 -1.532472 -0.940536 4.313727 14.744345 -7.788991 0.204016 4.541694 21.474956 -36.708140 -9.804306 4.018700 -40.080684 -13.108078 10.758848 0.218975 -20.330842 -4.583515 14.370475 -15.942593 -7.178501 38.028086 10.477119 5.928562 35.626425 8.896287 12.659163 -5.321762 17.863950 -3.445948 3.516528 10.361070 2.716968 
-1.403766 1.255258 0.955078 70.946454 -1.830754 91.727917 13.479566 2.713867 -10.887178 -13.962169 -14.712892 27.896394 0.730673 2.879961 -20.710072 0.000000 -0.000000 0.000000 -14.395953 -3.947456 -17.721495 7.303854 7.848159 38.661245 6.367738 -0.043303 -22.766057 0.000000 -0.000000 0.000000 -1.243909 0.349912 15.414998 2.265859 -1.092425 -2.692932 0.051449 -1.397410 -1.010001 4.266014 14.101251 -6.898569 0.436781 4.979300 20.918281 -36.589558 -6.857074 4.147975 -40.660863 -11.378616 10.799209 0.519458 -24.018441 -6.269329 12.539689 -12.580509 -12.313217 38.160687 8.487719 5.958697 36.065636 7.704557 12.650655 -5.470749 16.593549 -5.150538 1.514724 9.410149 2.707769 
-1.397991 1.252830 0.962019 71.021350 -1.755258 91.528072 13.536422 2.216637 -9.182525 -13.393859 -15.202193 25.503017 0.360898 3.087679 -19.449305 0.000000 -0.000000 0.000000 -14.378632 -4.102964 -16.142377 7.154643 8.017808 36.779440 6.600189 0.217900 -21.231274 0.000000 -0.000000 0.000000 -1.147155 0.382923 13.981353 2.285163 -0.965643 -2.220869 0.091235 -1.321629 -0.885599 4.527018 13.881431 -6.634351 0.435113 5.300549 20.789708 -36.774908 -4.333262 4.127442 -41.195644 -9.324711 10.823044 2.227292 -26.933601 -6.444735 15.535921 -12.369714 -11.291725 38.348319 6.952797 5.804942 36.570935 6.469433 12.049820 -5.849666 15.459301 -6.792926 -0.543837 9.850026 1.905511 
-1.393531 1.250287 0.968243 71.058526 -1.592946 91.588196 13.738294 1.952049 -7.735427 -12.745554 -15.543987 22.887537 0.082452 2.996354 -18.216240 0.000000 -0.000000 0.000000 -14.258365 -4.342650 -14.737827 7.042674 8.213655 34.584099 6.865004 0.553697 -19.817260 0.000000 -0.000000 0.000000 -1.110545 0.462421 12.678288 2.416482 -0.757835 -2.004351 0.162419 -1.222872 -0.878366 4.656178 13.674215 -6.227545 0.538091 5.579465 20.525037 -36.613423 -1.692750 4.108536 -42.005583 -7.699565 10.982667 3.146266 -29.299994 -6.170541 16.862783 -11.994307 -12.292065 38.330030 5.235538 5.457287 37.363108 5.407898 11.613061 -6.326595 14.777245 -8.684038 -1.631758 9.723547 0.528552 
-1.390121 1.248441 0.973413 71.137298 -1.605016 91.783118 13.618194 1.892951 -6.649420 -12.064518 -15.995486 20.562257 -0.475869 3.148365 -17.138728 0.000000 -0.000000 0.000000 -14.270490 -4.187712 -13.539890 6.821053 8.210804 32.383283 6.954918 0.462776 -18.949868 0.000000 -0.000000 0.000000 -1.216660 0.368974 11.338645 2.528935 -0.583349 -1.775486 0.177019 -1.181987 -0.768586 4.995834 13.347706 -6.629124 -0.003851 5.272867 20.842574 -36.486612 0.788750 4.010936 -42.640892 -6.248893 11.037718 3.874446 -31.264048 -5.389912 15.071207 -11.533946 -12.693889 38.300921 3.542123 5.127370 38.124313 4.763839 11.165292 -6.933972 14.557982 -10.479302 -0.476250 9.300937 -1.143970 
-1.386610 1.245708 0.977948 71.116675 -1.451709 92.147939 13.714920 1.815843 -5.357061 -11.141847 -16.268657 17.755033 -0.603760 3.044295 -16.311829 0.000000 -0.000000 0.000000 -13.908805 -4.240151 -12.010917 6.097333 8.087327 29.305985 6.866087 0.566034 -18.188450 0.000000 -0.000000 0.000000 -1.087081 0.410281 9.671779 2.404022 -0.415704 -1.183712 0.206313 -1.255272 -1.158753 5.117037 13.710371 -5.915409 0.163908 5.792566 19.969843 -36.291572 3.097947 3.966419 -43.632990 -4.025341 9.915016 7.889818 -34.608128 -5.261956 9.490930 -8.792205 -9.127703 38.062259 2.123145 5.006094 39.920349 3.679383 9.984929 -8.782836 14.612242 -12.288598 1.571281 8.203853 -2.228201 
-1.384469 1.244086 0.979963 71.019069 -1.358615 92.331310 13.756644 1.642882 -4.236845 -10.392796 -16.266755 15.400703 -0.908667 3.293691 -15.818229 0.000000 -0.000000 0.000000 -13.682357 -4.169099 -10.891356 5.831231 8.227288 27.044774 6.953927 0.079549 -18.232656 0.000000 -0.000000 0.000000 -1.220203 0.511420 8.778329 2.540320 -0.275402 -1.276088 0.356233 -1.095719 -1.015875 4.942644 13.537949 -6.082226 0.313804 5.939062 19.567644 -36.015838 4.476080 3.938939 -44.795928 -3.809753 9.797641 7.723558 -32.865035 -7.974141 14.484323 -9.634091 -13.049582 38.026092 1.053251 4.799349 40.557560 3.458334 10.012358 -9.339417 14.250997 -14.161532 -0.171607 8.214353 -4.135432 
-1.383649 1.242903 0.980731 70.930818 -1.327017 92.596316 13.597769 1.522685 -3.514710 -9.584897 -16.268200 13.562510 -1.018531 3.605503 -15.702591 0.000000 -0.000000 0.000000 -13.522159 -4.244757 -10.266612 5.627722 8.299825 25.308507 6.658838 -0.312865 -18.255393 0.000000 -0.000000 0.000000 -1.251731 0.556640 7.851304 2.556368 -0.147453 -1.118666 0.416781 -0.986116 -0.960824 4.796062 13.481019 -6.726944 0.257536 6.220791 19.454461 -35.988588 5.440112 3.818031 -45.626980 -4.027320 9.299807 8.657983 -31.427392 -11.850046 16.584404 -8.361935 -17.246260 38.402301 0.401482 4.599514 40.762611 3.860552 9.865957 -10.137312 13.190036 -16.375967 -0.899393 8.068125 -5.074417 
-1.384005 1.242152 0.980236 70.856324 -1.364517 92.794779 13.456942 1.123329 -2.894462 -8.945950 -15.915218 11.832374 -0.899147 3.913907 -15.768472 0.000000 -0.000000 0.000000 -13.543079 -4.052155 -9.851108 5.448830 8.052223 24.053025 6.657570 -0.502966 -18.534886 0.000000 -0.000000 0.000000 -1.253303 0.614003 7.235272 2.466484 -0.215803 -1.081417 0.408470 -0.963242 -0.903447 4.566122 13.604865 -7.397267 0.235471 6.561753 19.537070 -35.839089 5.887769 3.589355 -46.392405 -4.693308 8.321663 9.669784 -28.962391 -15.991029 16.224494 -6.632659 -20.071645 38.612919 0.409849 4.635267 41.015629 4.543262 9.873614 -11.198809 12.034589 -18.231907 0.306016 7.684443 -5.879674 
